<svg xmlns="http://www.w3.org/2000/svg" width="2460" height="640" viewBox="0 0 2460 640" role="img" aria-labelledby="title desc">
  <title id="title">D · 星舰科技 · 中文与 English</title>
  <desc id="desc">dsh-status-card bilingual template preview</desc>
  <rect width="2460" height="640" rx="32" fill="#eef2f7"/>
  <text x="40" y="38" font-family="Inter, Segoe UI, sans-serif" font-size="20" font-weight="700" fill="#52637a">中文 / English</text>
  <svg x="20" y="70" width="1200" height="520" viewBox="0 0 1200 520">
  <title id="zh-title">D · 星舰科技</title>
  <desc id="zh-desc">dsh-status-card 中文模板展示图</desc>
  <defs>
    <linearGradient id="zh-bg" x1="0" y1="0" x2="1" y2="1"><stop stop-color="#090b22"/><stop offset="1" stop-color="#221044"/></linearGradient>
    <linearGradient id="zh-bar" x1="0" y1="0" x2="1" y2="0"><stop stop-color="#8b5cf6"/><stop offset="1" stop-color="#22d3ee"/></linearGradient>
    <filter id="zh-shadow" x="-10%" y="-20%" width="120%" height="150%"><feDropShadow dx="0" dy="12" stdDeviation="16" flood-color="#000000" flood-opacity=".18"/></filter>
  </defs>
  <style>
    text { font-family: Inter, "Segoe UI", "Microsoft YaHei", "Noto Sans CJK SC", "Segoe UI Emoji", sans-serif; fill: #f4f1ff; }
    .eyebrow { font-size: 20px; font-weight: 700; letter-spacing: .6px; }
    .title { font-size: 30px; font-weight: 760; }
    .label { font-size: 17px; font-weight: 600; fill: #aaa3cf; }
    .value { font-size: 24px; font-weight: 720; }
    .badge { font-size: 18px; font-weight: 700; fill: #d8c7ff; }
    .progress { font-size: 17px; font-weight: 650; }
    .footer { font-size: 18px; font-weight: 520; fill: #aaa3cf; }
  </style>
  <rect width="1200" height="520" rx="28" fill="url(#zh-bg)"/>
  <circle cx="1090" cy="46" r="120" fill="#8b5cf6" opacity=".08"/>
  <circle cx="110" cy="505" r="150" fill="#22d3ee" opacity=".07"/>
  <text x="60" y="60" class="eyebrow">D · 星舰科技</text>
  <rect x="58" y="88" width="1084" height="378" rx="25" fill="#11152f" stroke="#4c3b86" stroke-width="2" filter="url(#zh-shadow)"/>
  <text x="92" y="151" class="title">🚀 神经甲板</text>
  <rect x="800" y="119" width="300" height="42" rx="21" fill="#2a1e51"/>
  <text x="950" y="146" class="badge" text-anchor="middle">🌌 深度思考</text>

    <rect x="92" y="205" width="296" height="90" rx="16" fill="#181d3d" stroke="#4c3b86"/>
    <text x="112" y="234" class="label">核心</text>
    <text x="112" y="272" class="value">🟣 在线</text>
    <rect x="422" y="205" width="296" height="90" rx="16" fill="#181d3d" stroke="#4c3b86"/>
    <text x="442" y="234" class="label">任务</text>
    <text x="442" y="272" class="value">🛰️ 编排中</text>
    <rect x="752" y="205" width="296" height="90" rx="16" fill="#181d3d" stroke="#4c3b86"/>
    <text x="772" y="234" class="label">功率</text>
    <text x="772" y="272" class="value">⚡ 96%</text>
  <text x="92" y="337" class="progress">推理链路</text>
  <text x="1090" y="337" class="progress" text-anchor="end">88%</text>
  <rect x="92" y="354" width="998" height="14" rx="7" fill="#4c3b86" opacity=".55"/>
  <rect x="92" y="354" width="878" height="14" rx="7" fill="url(#zh-bar)"/>
  <text x="600" y="417" class="footer" text-anchor="middle">信号稳定，正在构建最佳答复。</text>
</svg>
  <svg x="1240" y="70" width="1200" height="520" viewBox="0 0 1200 520">
  <title id="en-title">D · Neural Deck</title>
  <desc id="en-desc">dsh-status-card English template preview</desc>
  <defs>
    <linearGradient id="en-bg" x1="0" y1="0" x2="1" y2="1"><stop stop-color="#090b22"/><stop offset="1" stop-color="#221044"/></linearGradient>
    <linearGradient id="en-bar" x1="0" y1="0" x2="1" y2="0"><stop stop-color="#8b5cf6"/><stop offset="1" stop-color="#22d3ee"/></linearGradient>
    <filter id="en-shadow" x="-10%" y="-20%" width="120%" height="150%"><feDropShadow dx="0" dy="12" stdDeviation="16" flood-color="#000000" flood-opacity=".18"/></filter>
  </defs>
  <style>
    text { font-family: Inter, "Segoe UI", "Microsoft YaHei", "Noto Sans CJK SC", "Segoe UI Emoji", sans-serif; fill: #f4f1ff; }
    .eyebrow { font-size: 20px; font-weight: 700; letter-spacing: .6px; }
    .title { font-size: 30px; font-weight: 760; }
    .label { font-size: 17px; font-weight: 600; fill: #aaa3cf; }
    .value { font-size: 24px; font-weight: 720; }
    .badge { font-size: 18px; font-weight: 700; fill: #d8c7ff; }
    .progress { font-size: 17px; font-weight: 650; }
    .footer { font-size: 18px; font-weight: 520; fill: #aaa3cf; }
  </style>
  <rect width="1200" height="520" rx="28" fill="url(#en-bg)"/>
  <circle cx="1090" cy="46" r="120" fill="#8b5cf6" opacity=".08"/>
  <circle cx="110" cy="505" r="150" fill="#22d3ee" opacity=".07"/>
  <text x="60" y="60" class="eyebrow">D · Neural Deck</text>
  <rect x="58" y="88" width="1084" height="378" rx="25" fill="#11152f" stroke="#4c3b86" stroke-width="2" filter="url(#en-shadow)"/>
  <text x="92" y="151" class="title">🚀 Neural Deck</text>
  <rect x="800" y="119" width="300" height="42" rx="21" fill="#2a1e51"/>
  <text x="950" y="146" class="badge" text-anchor="middle">🌌 Deep Thinking</text>

    <rect x="92" y="205" width="296" height="90" rx="16" fill="#181d3d" stroke="#4c3b86"/>
    <text x="112" y="234" class="label">Core</text>
    <text x="112" y="272" class="value">🟣 Online</text>
    <rect x="422" y="205" width="296" height="90" rx="16" fill="#181d3d" stroke="#4c3b86"/>
    <text x="442" y="234" class="label">Mission</text>
    <text x="442" y="272" class="value">🛰️ Orchestrating</text>
    <rect x="752" y="205" width="296" height="90" rx="16" fill="#181d3d" stroke="#4c3b86"/>
    <text x="772" y="234" class="label">Power</text>
    <text x="772" y="272" class="value">⚡ 96%</text>
  <text x="92" y="337" class="progress">Reasoning path</text>
  <text x="1090" y="337" class="progress" text-anchor="end">88%</text>
  <rect x="92" y="354" width="998" height="14" rx="7" fill="#4c3b86" opacity=".55"/>
  <rect x="92" y="354" width="878" height="14" rx="7" fill="url(#en-bar)"/>
  <text x="600" y="417" class="footer" text-anchor="middle">Signal stable. Constructing the best response.</text>
</svg>
</svg>